PathFileType	4	(X/Y/Z)	21_coords_data.trc
DataRate	CameraRate	NumFrames	NumMarkers	Units	OrigDataRate	OrigDataStartFrame	OrigNumFrames
30.0	30.0	7	21	m	30.0	1	62
Frame#	Time	THUMB_TIP	THUMB_IP	THUMB_MCP	THUMB_CMC	INDEX_TIP	INDEX_DIP	INDEX_PIP	INDEX_MCP	MIDDLE_TIP	MIDDLE_DIP	MIDDLE_PIP	MIDDLE_MCP	RING_TIP	RING_DIP	RING_PIP	RING_MCP	PINKY_TIP	PINKY_DIP	PINKY_PIP	PINKY_MCP	WRIST
X1	Y1	Z1	X2	Y2	Z2	X3	Y3	Z3	X4	Y4	Z4	X5	Y5	Z5	X6	Y6	Z6	X7	Y7	Z7	X8	Y8	Z8	X9	Y9	Z9	X10	Y10	Z10	X11	Y11	Z11	X12	Y12	Z12	X13	Y13	Z13	X14	Y14	Z14	X15	Y15	Z15	X16	Y16	Z16	X17	Y17	Z17	X18	Y18	Z18	X19	Y19	Z19	X20	Y20	Z20	X21	Y21	Z21
0	0.0	-0.010501299858093262	-0.0009826859831809991	0.8960159912109374	-0.023409099578857423	0.01254889965057373	0.9210919799804688	-0.03660350036621094	0.022491899490356446	0.9488820190429688	-0.04962039947509766	0.04101800155639648	0.9729739990234375	-0.031449600219726564	0.04682149887084961	0.9479249877929687	-0.015722000122070312	0.045969898223876954	0.9357650146484375	-0.013847599983215332	0.0418760986328125	0.9106329956054687	-0.05869409942626953	0.04169039916992188	0.9098040161132812	-0.03610369873046875	0.05980569839477539	0.9531799926757812	-0.02344799995422363	0.06088019943237305	0.9398380126953125	-0.01240250015258789	0.06348820114135742	0.9115700073242188	-0.05754700088500977	0.06700579833984376	0.90981201171875	-0.03649140167236328	0.07178099822998046	0.9561829833984375	-0.024239500045776366	0.07504219818115235	0.9413109741210938	-0.01613019943237305	0.0817083969116211	0.9141500244140625	-0.05855939865112305	0.08673709869384766	0.9203389892578125	0.0	0.0	0.0	-0.015008399963378907	0.09210790252685547	0.9336209716796875	-0.020287500381469727	0.09888569641113282	0.9193330078125	-0.05026279830932617	0.10131500244140625	0.9295999755859375	-0.08058889770507813	0.06186869812011719	0.9931400146484375
1	0.03333333333333333	-0.010358900070190429	-0.0007088379859924311	0.8961950073242188	-0.022293500900268555	0.012581299781799317	0.9198309936523438	-0.03674480056762695	0.023206300735473633	0.9467319946289062	-0.048972900390625	0.04395690155029297	0.9726380004882812	-0.03254859924316406	0.045317798614501956	0.9459719848632813	-0.016544200897216796	0.04559230041503906	0.9350670166015626	-0.014267000198364257	0.04222719955444336	0.9108480224609375	-0.05768379974365234	0.04236989974975586	0.910593017578125	-0.031243200302124022	0.05788069915771484	0.9469089965820312	-0.02049410057067871	0.061318199157714845	0.9390770263671875	-0.013832300186157227	0.06317440032958985	0.9117990112304688	-0.05940549850463867	0.06621199798583985	0.9110159912109375	-0.036016700744628906	0.07156430053710937	0.950822998046875	-0.02255769920349121	0.07601789855957031	0.9398280029296875	-0.016138299942016602	0.08209449768066407	0.914781005859375	-0.05806760025024414	0.08636329650878906	0.918822998046875	-0.030290199279785157	0.08744139862060547	0.9459450073242187	-0.01638010025024414	0.09152549743652344	0.9350900268554687	-0.019999000549316408	0.09909629821777344	0.9200079956054688	-0.0517151985168457	0.10117600250244141	0.9295079956054687	-0.07926979827880859	0.0626234016418457	0.9958720092773438
2	0.06666666666666667	-0.010386899948120117	-0.000638311028480529	0.8962579956054687	-0.02228450012207031	0.012649299621582032	0.9198629760742187	-0.03686780166625977	0.02334199905395508	0.9467750244140625	-0.04911130142211914	0.04406800079345703	0.9726849975585937	-0.03252930068969727	0.045444698333740235	0.9457949829101563	-0.016736000061035157	0.045753299713134764	0.9350430297851563	-0.01417140007019043	0.04253820037841797	0.910947998046875	-0.05757709884643555	0.04259920120239258	0.9103740234375	-0.030349199295043944	0.05822800064086914	0.9464910278320312	-0.020534000396728515	0.06150500106811523	0.939218017578125	-0.013834600448608398	0.06346429824829102	0.9119340209960938	-0.059298599243164066	0.06651200103759766	0.9108920288085938	-0.036000701904296876	0.07169190216064453	0.950593994140625	-0.022716100692749024	0.07619270324707031	0.9399879760742188	-0.016180900573730467	0.08229440307617188	0.9145919799804687	-0.057975799560546874	0.08660790252685546	0.9187869873046876	-0.030102300643920898	0.08729730224609375	0.945718017578125	-0.016390899658203124	0.09171189880371093	0.9352930297851563	-0.019973699569702148	0.09930750274658204	0.920156005859375	-0.05184550094604492	0.10136799621582031	0.929583984375	-0.07932559967041015	0.0628203010559082	0.9955079956054688
3	0.1	-0.010146599769592285	-0.0004888469874858851	0.8963820190429688	-0.022122900009155275	0.012841099739074708	0.9199760131835938	-0.03678919982910156	0.02350629997253418	0.9466859741210938	-0.049104499816894534	0.04406549835205078	0.9723350219726562	-0.032447799682617184	0.04566830062866211	0.9455269775390625	-0.016552499771118164	0.046139701843261716	0.9351329956054687	-0.014112000465393066	0.04287710189819336	0.9109299926757812	-0.05748360061645508	0.04299509811401367	0.9105280151367188	-0.03107469940185547	0.05835029983520508	0.9469569702148437	-0.020637199401855467	0.061761501312255856	0.9392919921875	-0.01370400047302246	0.06379899978637696	0.9120040283203125	-0.05931900024414063	0.06682550048828124	0.911052001953125	-0.03603820037841797	0.07197609710693359	0.9503709716796875	-0.02263909912109375	0.07650499725341797	0.9401090087890625	-0.016141300201416017	0.08274199676513672	0.9149730224609375	-0.05804100036621094	0.08690730285644531	0.9188820190429687	-0.030265300750732423	0.08773310089111327	0.9456699829101562	-0.016458900451660156	0.09203260040283204	0.9353709716796875	-0.01999090003967285	0.09966799926757812	0.9202830200195312	-0.05184289932250977	0.10168399810791015	0.9297230224609375	-0.07946279907226562	0.06299470138549805	0.9957360229492187
4	0.13333333333333333	-0.010127599716186524	-0.00044523799419403	0.8964509887695312	-0.022147199630737305	0.01295300006866455	0.9200330200195312	-0.0368578987121582	0.023635900497436524	0.9466840209960937	-0.049277099609375	0.04469919967651367	0.9725029907226562	-0.03233089828491211	0.046022201538085936	0.9457109985351563	-0.01652429962158203	0.046437198638916016	0.934969970703125	-0.01410830020904541	0.04324860000610352	0.9108909912109375	-0.0575088996887207	0.04328469848632813	0.910468017578125	-0.03039069938659668	0.05886420059204102	0.9466380004882813	-0.020514699935913087	0.06214120101928711	0.9391129760742187	-0.013780500411987305	0.06419010162353515	0.912010986328125	-0.05928820037841797	0.06707640075683594	0.9109990234375	-0.03618030166625977	0.07204100036621094	0.95089501953125	-0.022553699493408203	0.07676740264892579	0.9399829711914063	-0.016204700469970704	0.08305819702148437	0.9149240112304687	-0.05811240005493164	0.087260498046875	0.9190430297851563	-0.03032110023498535	0.08775579833984375	0.9458770141601562	-0.01643939971923828	0.09236769866943359	0.935458984375	-0.02008679962158203	0.10001599884033203	0.9203670043945312	-0.052054698944091794	0.10204100036621094	0.929875	-0.07966790008544922	0.06309780120849609	0.9958300170898438
5	0.16666666666666666	-0.010409099578857422	-0.000603963971138	0.8964739990234375	-0.022371599197387695	0.012890600204467773	0.9200059814453125	-0.03702479934692383	0.02376049995422363	0.9467080078125	-0.049545799255371094	0.04482339859008789	0.9727239990234375	-0.032518199920654293	0.04616400146484375	0.9456060180664062	-0.01675239944458008	0.046482799530029296	0.9348930053710938	-0.014139699935913085	0.04347380065917969	0.91097802734375	-0.05749679946899414	0.04351219940185547	0.910218994140625	-0.03127840042114258	0.058669300079345704	0.9470089721679688	-0.020569700241088867	0.06224190139770508	0.9391370239257812	-0.013787599563598632	0.06439399719238281	0.91214501953125	-0.059349498748779296	0.06736440277099609	0.911072021484375	-0.03638520050048828	0.07218689727783204	0.9511259765625	-0.02263199996948242	0.07694110107421875	0.9401539916992188	-0.016208799362182617	0.08325350189208984	0.91497998046875	-0.05812739944458008	0.08743669891357422	0.91889501953125	-0.03042970085144043	0.0881709976196289	0.94610400390625	-0.01654960060119629	0.0925239028930664	0.9355819702148438	-0.02008720016479492	0.10019400024414063	0.9205029907226563	-0.05205009841918945	0.10215200042724609	0.9297139892578125	-0.07985549926757812	0.0633016014099121	0.9949879760742187
6	0.2	-0.010492799758911132	-0.0006200299859046931	0.8965009765625	-0.0224596004486084	0.01288479995727539	0.9200260009765625	-0.03716759872436524	0.023779199600219725	0.94672998046875	-0.049667198181152346	0.044803199768066404	0.97260400390625	-0.03256760025024414	0.046192298889160155	0.9457219848632813	-0.01685919952392578	0.04655099868774414	0.934802001953125	-0.01415719985961914	0.04364780044555664	0.9109580078125	-0.05749879837036133	0.04350830078125	0.9103060302734375	-0.030224199295043944	0.058985198974609375	0.9466380004882813	-0.020702299118041993	0.06232820129394531	0.9392069702148438	-0.01380519962310791	0.06451239776611328	0.9122260131835938	-0.059577899932861327	0.06743219757080078	0.9110239868164063	-0.03644929885864258	0.07246939849853516	0.9508740234375	-0.022797800064086913	0.07705909729003907	0.9402440185546875	-0.016235300064086914	0.08340650177001953	0.915427978515625	-0.05822660064697266	0.08752320098876953	0.918948974609375	-0.03058799934387207	0.08803130340576172	0.9462639770507812	-0.016812400817871095	0.09252320098876952	0.9356220092773437	-0.020197900772094726	0.10028700256347656	0.9206060180664063	-0.052202701568603516	0.10225599670410156	0.9298250122070313	-0.07988690185546875	0.06325600051879883	0.9952739868164062
